<svg width="36" height="36" viewBox="0 0 36 36" fill="none" xmlns="http://www.w3.org/2000/svg">
<g clip-path="url(#clip0_43_15)">
<path d="M13.72 27.69L3.28999 17.27C3.12616 17.0787 3.04055 16.8326 3.05028 16.581C3.06 16.3293 3.16433 16.0905 3.34242 15.9125C3.52052 15.7344 3.75926 15.63 4.01093 15.6203C4.26261 15.6106 4.50869 15.6962 4.69999 15.86L13.7 24.86L31.29 7.29002C31.4813 7.12619 31.7274 7.04059 31.979 7.05031C32.2307 7.06003 32.4695 7.16436 32.6476 7.34245C32.8256 7.52055 32.93 7.75929 32.9397 8.01096C32.9494 8.26264 32.8638 8.50872 32.7 8.70002L13.72 27.69Z" fill="#4ECB71"/>
</g>
<defs>
<clipPath id="clip0_43_15">
<rect width="36" height="36" fill="white"/>
</clipPath>
</defs>
</svg>
